<svg width="41" height="40" viewBox="0 0 41 40" fill="none" xmlns="http://www.w3.org/2000/svg">
<g id="check-mark 1">
<path id="Vector" d="M18.1228 24.0762C17.9663 24.2442 17.7153 24.2827 17.5148 24.1722L8.41075 19.1332C8.27375 19.0572 8.14125 19.0252 8.01825 19.0252C7.77375 19.0252 7.56675 19.1512 7.43075 19.3062C7.22575 19.5397 7.09125 19.9542 7.38675 20.3542L17.8093 34.4567C18.0823 34.8257 18.5013 35.0232 18.9493 34.9972C19.4028 34.9712 19.7958 34.7277 20.0263 34.3282L35.0883 8.25671C35.3643 7.77921 35.1408 7.37221 34.8663 7.16871C34.5923 6.96621 34.1718 6.88571 33.8143 7.26821L18.1228 24.0762Z" fill="#001124"/>
</g>
</svg>
