<svg width="22" height="22" viewBox="0 0 22 22" fill="none" xmlns="http://www.w3.org/2000/svg">
<path d="M14.9968 12.8333C15.0702 12.2283 15.1252 11.6233 15.1252 10.9999C15.1252 10.3766 15.0702 9.77159 14.9968 9.16659H18.0952C18.2418 9.75325 18.3335 10.3674 18.3335 10.9999C18.3335 11.6324 18.2418 12.2466 18.0952 12.8333M13.3743 17.9299C13.9243 16.9124 14.346 15.8124 14.6393 14.6666H17.3435C16.4554 16.1958 15.0464 17.3542 13.3743 17.9299ZM13.1452 12.8333H8.85516C8.7635 12.2283 8.7085 11.6233 8.7085 10.9999C8.7085 10.3766 8.7635 9.76242 8.85516 9.16659H13.1452C13.2277 9.76242 13.2918 10.3766 13.2918 10.9999C13.2918 11.6233 13.2277 12.2283 13.1452 12.8333ZM11.0002 18.2966C10.2393 17.1966 9.62516 15.9774 9.24933 14.6666H12.751C12.3752 15.9774 11.761 17.1966 11.0002 18.2966ZM7.3335 7.33325H4.65683C5.53578 5.79987 6.94373 4.63961 8.61683 4.06992C8.06683 5.08742 7.65433 6.18742 7.3335 7.33325ZM4.65683 14.6666H7.3335C7.65433 15.8124 8.06683 16.9124 8.61683 17.9299C6.94723 17.3539 5.54127 16.1953 4.65683 14.6666ZM3.90516 12.8333C3.7585 12.2466 3.66683 11.6324 3.66683 10.9999C3.66683 10.3674 3.7585 9.75325 3.90516 9.16659H7.0035C6.93016 9.77159 6.87516 10.3766 6.87516 10.9999C6.87516 11.6233 6.93016 12.2283 7.0035 12.8333M11.0002 3.69409C11.761 4.79409 12.3752 6.02242 12.751 7.33325H9.24933C9.62516 6.02242 10.2393 4.79409 11.0002 3.69409ZM17.3435 7.33325H14.6393C14.3524 6.19792 13.9276 5.10199 13.3743 4.06992C15.061 4.64742 16.4635 5.81159 17.3435 7.33325ZM11.0002 1.83325C5.931 1.83325 1.8335 5.95825 1.8335 10.9999C1.8335 13.4311 2.79927 15.7626 4.51835 17.4817C5.36955 18.3329 6.38008 19.0081 7.49223 19.4688C8.60438 19.9295 9.79638 20.1666 11.0002 20.1666C13.4313 20.1666 15.7629 19.2008 17.482 17.4817C19.2011 15.7626 20.1668 13.4311 20.1668 10.9999C20.1668 9.79613 19.9297 8.60414 19.4691 7.49199C19.0084 6.37984 18.3332 5.36931 17.482 4.51811C16.6308 3.6669 15.6202 2.99169 14.5081 2.53102C13.3959 2.07035 12.2039 1.83325 11.0002 1.83325Z" fill="white"/>
</svg>
