<svg width="22" height="22" viewBox="0 0 22 22" fill="none" xmlns="http://www.w3.org/2000/svg">
<path d="M18.3333 11C18.0889 11 17.871 10.912 17.6798 10.736C17.4885 10.56 17.3782 10.3424 17.3488 10.0833C17.1502 8.6625 16.5504 7.45158 15.5494 6.45058C14.5484 5.44958 13.3375 4.85008 11.9167 4.65208C11.6569 4.62153 11.4391 4.51458 11.2631 4.33125C11.0871 4.14792 10.9994 3.92639 11 3.66667C11 3.40694 11.0917 3.18908 11.275 3.01308C11.4583 2.83708 11.6722 2.76467 11.9167 2.79583C13.8417 3.00972 15.484 3.79653 16.8438 5.15625C18.2035 6.51597 18.9903 8.15833 19.2042 10.0833C19.2347 10.3278 19.162 10.5417 18.986 10.725C18.81 10.9083 18.5924 11 18.3333 11ZM14.5063 11C14.3076 11 14.1319 10.9312 13.9792 10.7937C13.8264 10.6562 13.7118 10.4729 13.6354 10.2438C13.5132 9.80069 13.2801 9.40714 12.936 9.06308C12.5919 8.71903 12.1987 8.48619 11.7563 8.36458C11.5271 8.28819 11.3438 8.17361 11.2063 8.02083C11.0688 7.86806 11 7.68472 11 7.47083C11 7.16528 11.1069 6.91686 11.3208 6.72558C11.5347 6.53431 11.7715 6.46953 12.0313 6.53125C12.8868 6.72986 13.6241 7.13869 14.2432 7.75775C14.8622 8.37681 15.2708 9.11381 15.4688 9.96875C15.5299 10.2285 15.4611 10.4653 15.2625 10.6792C15.0639 10.8931 14.8118 11 14.5063 11ZM18.2875 19.25C16.3167 19.25 14.3953 18.8106 12.5235 17.9318C10.6517 17.0531 8.99403 15.8919 7.55058 14.4485C6.10714 13.0051 4.94603 11.3474 4.06725 9.47558C3.18847 7.60375 2.74939 5.68272 2.75 3.7125C2.75 3.4375 2.84167 3.20833 3.025 3.025C3.20833 2.84167 3.4375 2.75 3.7125 2.75H7.425C7.63889 2.75 7.82986 2.81875 7.99792 2.95625C8.16597 3.09375 8.26528 3.26944 8.29583 3.48333L8.89167 6.69167C8.92222 6.90556 8.91825 7.1005 8.87975 7.2765C8.84125 7.4525 8.75356 7.60894 8.61667 7.74583L6.41667 9.99167C7.05833 11.0917 7.86042 12.1229 8.82292 13.0854C9.78542 14.0479 10.8472 14.8806 12.0083 15.5833L14.1625 13.4292C14.3 13.2917 14.4797 13.1887 14.7015 13.1202C14.9233 13.0518 15.1409 13.0326 15.3542 13.0625L18.5167 13.7042C18.7306 13.75 18.9062 13.8533 19.0438 14.014C19.1812 14.1747 19.25 14.3617 19.25 14.575V18.2875C19.25 18.5625 19.1583 18.7917 18.975 18.975C18.7917 19.1583 18.5625 19.25 18.2875 19.25Z" fill="white"/>
</svg>
