<svg width="22" height="22" viewBox="0 0 22 22" fill="none" xmlns="http://www.w3.org/2000/svg">
<path d="M18.3335 3.66675H3.66683C2.6585 3.66675 1.84266 4.49175 1.84266 5.50008L1.8335 16.5001C1.8335 17.5084 2.6585 18.3334 3.66683 18.3334H18.3335C19.3418 18.3334 20.1668 17.5084 20.1668 16.5001V5.50008C20.1668 4.49175 19.3418 3.66675 18.3335 3.66675ZM17.9668 7.56258L11.486 11.6142C11.1927 11.7976 10.8077 11.7976 10.5143 11.6142L4.0335 7.56258C3.94158 7.51098 3.86109 7.44127 3.79689 7.35766C3.7327 7.27406 3.68614 7.17829 3.66002 7.07617C3.63391 6.97405 3.62879 6.86769 3.64497 6.76353C3.66116 6.65937 3.6983 6.55958 3.75417 6.47019C3.81004 6.3808 3.88346 6.30368 3.97 6.24349C4.05653 6.1833 4.15438 6.1413 4.25762 6.12002C4.36086 6.09874 4.46734 6.09863 4.57062 6.1197C4.6739 6.14077 4.77184 6.18257 4.8585 6.24258L11.0002 10.0834L17.1418 6.24258C17.2285 6.18257 17.3264 6.14077 17.4297 6.1197C17.533 6.09863 17.6395 6.09874 17.7427 6.12002C17.8459 6.1413 17.9438 6.1833 18.0303 6.24349C18.1169 6.30368 18.1903 6.3808 18.2462 6.47019C18.302 6.55958 18.3392 6.65937 18.3554 6.76353C18.3715 6.86769 18.3664 6.97405 18.3403 7.07617C18.3142 7.17829 18.2676 7.27406 18.2034 7.35766C18.1392 7.44127 18.0587 7.51098 17.9668 7.56258Z" fill="white"/>
</svg>
