<svg width="42" height="56" viewBox="0 0 42 56" fill="none" xmlns="http://www.w3.org/2000/svg">
<g clip-path="url(#clip0_1_880)">
<path d="M38.7929 10.1646H28.9038C28.8274 10.1646 28.7892 10.1262 28.7892 10.0495V2.60844V0.153644C28.7892 0.0769316 28.7511 0.0385742 28.6747 0.0385742H13.2492C13.1729 0.0385742 13.1347 0.0769316 13.1347 0.153644V10.0879C13.1347 10.1646 13.0965 10.203 13.0201 10.203H3.16923C3.09287 10.203 3.05469 10.2413 3.05469 10.318V25.6605C3.05469 25.7756 3.16923 25.8139 3.2456 25.7372L5.57469 23.3975C5.61287 23.3591 5.61287 23.3591 5.61287 23.3208V12.8495C5.61287 12.7728 5.65105 12.7345 5.72741 12.7345H13.1729H15.6165C15.6929 12.7345 15.731 12.6961 15.731 12.6194V10.1646V2.68515C15.731 2.60844 15.7692 2.57008 15.8456 2.57008H26.1929C26.2692 2.57008 26.3074 2.60844 26.3074 2.68515V10.1646V12.6194C26.3074 12.6961 26.3456 12.7345 26.422 12.7345H28.8656H36.3111C36.3874 12.7345 36.4256 12.7728 36.4256 12.8495V23.3208C36.4256 23.3591 36.4256 23.3975 36.4638 23.3975L38.7929 25.7372C38.8692 25.8139 38.9838 25.7756 38.9838 25.6605V10.318C38.9074 10.2413 38.8692 10.1646 38.7929 10.1646Z" fill="#009DE0"/>
<path d="M9.96555 40.2362C9.96555 40.1594 9.92737 40.1211 9.851 40.1211H8.32373V47.3704C8.32373 47.4471 8.36191 47.4855 8.43827 47.4855H9.851C9.92737 47.4855 9.96555 47.4471 9.96555 47.3704V40.2362Z" fill="#009DE0"/>
<path d="M32.9129 44.5321C32.8747 44.4553 32.9129 44.3786 32.9892 44.3786C34.7838 43.9184 34.8983 41.8088 33.7147 40.7731C33.1038 40.2362 32.2638 40.1211 31.4238 40.1211H28.2547C28.1783 40.1211 28.1401 40.1594 28.1401 40.2362V47.3704C28.1401 47.4471 28.1783 47.4855 28.2547 47.4855H29.7056C29.782 47.4855 29.8201 47.4471 29.8201 47.3704V41.3101C29.8201 41.2334 29.8583 41.1951 29.9347 41.1951H31.3474C32.0729 41.1951 32.6456 41.5786 32.7601 42.1156C32.8747 42.7293 32.6456 43.7266 30.9274 43.8033C30.851 43.8033 30.7747 43.88 30.851 43.9567L32.8365 47.4088C32.8747 47.4471 32.8747 47.4471 32.9129 47.4471H34.4401C34.5165 47.4471 34.5929 47.3704 34.5165 47.2937L32.9129 44.5321Z" fill="#009DE0"/>
<path d="M37.7619 46.2581V44.4553C37.7619 44.3786 37.8001 44.3403 37.8765 44.3403H41.2365C41.3128 44.3403 41.351 44.3019 41.351 44.2252V43.2279C41.351 43.1512 41.3128 43.1129 41.2365 43.1129H37.8765C37.8001 43.1129 37.7619 43.0745 37.7619 42.9978V41.4252C37.7619 41.3485 37.8001 41.3101 37.8765 41.3101H41.6947C41.771 41.3101 41.8092 41.2718 41.8092 41.1951V40.2362C41.8092 40.1594 41.771 40.1211 41.6947 40.1211H36.2347C36.1583 40.1211 36.1201 40.1594 36.1201 40.2362V47.3704C36.1201 47.4471 36.1583 47.4855 36.2347 47.4855H41.6947C41.771 47.4855 41.8092 47.4471 41.8092 47.3704V46.4499C41.8092 46.3731 41.771 46.3348 41.6947 46.3348H37.8765C37.8001 46.3731 37.7619 46.2964 37.7619 46.2581Z" fill="#009DE0"/>
<path d="M18.7856 43.918C18.8238 49.0577 26.5366 49.0577 26.5366 43.918C26.4984 38.7399 18.8238 38.7783 18.7856 43.918ZM22.6802 46.4495C21.1911 46.4495 20.4275 45.2988 20.3893 43.918C20.3893 42.5372 21.1911 41.3865 22.6802 41.3865C24.1693 41.3865 24.8947 42.5372 24.9329 43.918C24.8947 45.2988 24.1693 46.4495 22.6802 46.4495Z" fill="#009DE0"/>
<path d="M4.65819 40.1978C4.65819 40.1594 4.62001 40.1211 4.54364 40.1211H3.55092H3.51273H3.47455H3.43637H2.44364C2.40546 40.1211 2.36728 40.1594 2.3291 40.1978L0.152734 47.3704C0.114552 47.4471 0.190916 47.5238 0.267279 47.5238H1.68001C1.71819 47.5238 1.75637 47.4855 1.79455 47.4471L2.40546 45.3375C2.40546 45.2992 2.44364 45.2608 2.52001 45.2608H4.46728C4.50546 45.2608 4.54364 45.2992 4.58182 45.3375L5.15455 47.4471C5.15455 47.4855 5.19273 47.5238 5.2691 47.5238H6.68182C6.75819 47.5238 6.79637 47.4471 6.79637 47.3704L4.65819 40.1978ZM2.71091 43.9184L3.43637 41.4252C3.47455 41.3101 3.62728 41.3101 3.62728 41.4252L4.35273 43.9184C4.39092 43.9951 4.31455 44.0718 4.23819 44.0718H2.82546C2.7491 44.0718 2.67273 43.9951 2.71091 43.9184Z" fill="#009DE0"/>
<path d="M16.6857 46.1812C16.6475 46.1428 16.6093 46.1045 16.5712 46.1428C15.0821 46.7949 13.2112 45.9511 13.2112 43.9182C13.2112 41.8853 15.0439 41.0415 16.5712 41.6935C16.6093 41.7319 16.6857 41.6935 16.6857 41.6552L17.2584 40.6963C17.2966 40.6579 17.2584 40.5812 17.2202 40.5428C16.953 40.3894 16.5712 40.236 16.0748 40.1209C14.2421 39.7374 11.5693 40.7346 11.5693 43.8798C11.5693 47.025 14.2421 48.0223 16.0748 47.6387C16.5712 47.5237 16.953 47.3702 17.2202 47.2168C17.2584 47.1785 17.2966 47.1018 17.2584 47.0634L16.6857 46.1812Z" fill="#009DE0"/>
<path d="M41.8091 35.7863V32.4877C41.8091 32.4493 41.8091 32.4493 41.7709 32.4109L21.1527 11.6986L21 11.5068L0.229099 32.3726C0.190917 32.4109 0.190918 32.4109 0.190918 32.4493V35.7479C0.190918 35.863 0.305463 35.9014 0.381827 35.8246L10.2709 25.8904C10.3091 25.852 10.3091 25.852 10.3473 25.852H13.0964C13.1727 25.852 13.2109 25.8904 13.2109 25.9671V33.4466V36.0164H15.7691H26.3455H28.9036V33.4466V25.9671C28.9036 25.8904 28.9418 25.852 29.0182 25.852H31.7673C31.8055 25.852 31.8055 25.852 31.8436 25.8904L41.7327 35.8246C41.6946 35.9397 41.8091 35.9014 41.8091 35.7863ZM28.8273 23.3589H26.3836C26.3073 23.3589 26.2691 23.3972 26.2691 23.474V25.9288V33.3699C26.2691 33.4466 26.2309 33.4849 26.1546 33.4849H15.8073C15.7309 33.4849 15.6927 33.4466 15.6927 33.3699V25.8904V23.4356C15.6927 23.3589 15.6546 23.3205 15.5782 23.3205H13.1346H12.7909L20.8855 15.189C20.9236 15.1507 21 15.1507 21.0382 15.189L29.1327 23.3205H28.8273V23.3589Z" fill="#009DE0"/>
<path d="M3.05455 53.1233C2.97819 52.8548 2.86364 52.3946 2.13819 52.3946C1.71819 52.3946 1.10728 52.6631 1.10728 53.8521C1.10728 54.6192 1.41274 55.3096 2.13819 55.3096C2.63455 55.3096 2.97819 55.0411 3.05455 54.5042H3.93274C3.74183 55.4247 3.1691 56.0768 2.10001 56.0768C0.992736 56.0768 0.190918 55.3096 0.190918 53.8521C0.190918 52.3946 1.03092 51.6274 2.10001 51.6274C3.36001 51.6274 3.85637 52.5096 3.89455 53.1233H3.05455Z" fill="#009DE0"/>
<path d="M7.59834 51.6274C8.17107 51.6274 9.62198 51.8576 9.62198 53.8521C9.62198 55.8466 8.17107 56.0768 7.59834 56.0768C7.02562 56.0768 5.57471 55.8466 5.57471 53.8521C5.57471 51.8576 7.02562 51.6274 7.59834 51.6274ZM7.59834 55.3096C8.05653 55.3096 8.7438 55.0028 8.7438 53.8521C8.7438 52.7014 8.09471 52.3946 7.59834 52.3946C7.14016 52.3946 6.45289 52.7014 6.45289 53.8521C6.45289 55.0028 7.10198 55.3096 7.59834 55.3096Z" fill="#009DE0"/>
<path d="M14.0129 51.7427H14.8147V55.9619H13.9365L12.2183 52.9701V55.9619H11.4165V51.7427H12.3329L14.0129 54.6961V51.7427Z" fill="#009DE0"/>
<path d="M17.4493 54.6576C17.4493 54.8877 17.5638 55.348 18.3275 55.348C18.7475 55.348 19.2056 55.2329 19.2056 54.811C19.2056 54.4658 18.9002 54.3891 18.442 54.274L17.9838 54.1589C17.2966 54.0055 16.6475 53.8521 16.6475 52.9315C16.6475 52.4713 16.9147 51.6274 18.2511 51.6274C19.5493 51.6274 19.8929 52.4713 19.8929 53.0083H19.0911C19.0529 52.8165 19.0147 52.3562 18.2511 52.3562C17.9075 52.3562 17.5256 52.4713 17.5256 52.8548C17.5256 53.2 17.7929 53.2384 17.9838 53.2768L19.0147 53.5452C19.5875 53.6987 20.122 53.9288 20.122 54.6959C20.122 55.9617 18.8238 56.0768 18.4802 56.0768C16.9529 56.0768 16.6856 55.1946 16.6856 54.6576H17.4493Z" fill="#009DE0"/>
<path d="M25.238 54.4657C25.238 55.5781 24.5889 56.0383 23.5198 56.0383C23.138 56.0383 22.5653 55.9616 22.1835 55.5397C21.9544 55.2712 21.878 54.926 21.8398 54.5041V51.7041H22.718V54.4274C22.718 55.0027 23.0617 55.2712 23.4817 55.2712C24.0926 55.2712 24.3217 54.9644 24.3217 54.4657V51.7041H25.1998V54.4657H25.238Z" fill="#009DE0"/>
<path d="M31.2707 55.9619H30.4689V52.4331L29.7053 55.9619H28.8653L28.1016 52.4331V55.9619H27.2998V51.7427H28.5598L29.3234 55.0797L30.0871 51.7427H31.3471V55.9619H31.2707Z" fill="#009DE0"/>
<path d="M36.349 52.4715H34.1344V53.3537H36.1581V54.0825H34.1344V55.1564H36.4635V55.8852H33.2944V51.666H36.3872V52.4715H36.349Z" fill="#009DE0"/>
<path d="M38.3345 51.7427H40.4345C41.5417 51.7427 41.7708 52.5865 41.7708 52.9317C41.7708 53.392 41.5417 53.8139 41.1217 53.929C41.4654 54.0824 41.6563 54.1975 41.6563 55.0029C41.6563 55.6166 41.6563 55.7701 41.8472 55.8468V55.9619H40.8545C40.7781 55.7701 40.7781 55.5399 40.7781 55.118C40.7781 54.5427 40.7399 54.3125 40.0908 54.3125H39.1745V55.9619H38.3345V51.7427ZM40.2054 53.5838C40.6636 53.5838 40.8927 53.4303 40.8927 53.0084C40.8927 52.7783 40.7781 52.4714 40.2817 52.4714H39.1745V53.5838H40.2054Z" fill="#009DE0"/>
</g>
<defs>
<clipPath id="clip0_1_880">
<rect width="42" height="56" fill="white"/>
</clipPath>
</defs>
</svg>
