<svg width="24" height="25" viewBox="0 0 24 25" fill="none" xmlns="http://www.w3.org/2000/svg">
<path fill-rule="evenodd" clip-rule="evenodd" d="M16.6761 3.12805C13.53 2.42477 10.2673 2.42477 7.12113 3.12805L6.78213 3.20305C5.89714 3.40091 5.08434 3.84023 4.434 4.47221C3.78366 5.10419 3.32124 5.90409 3.09813 6.78305C2.30062 9.92557 2.30062 13.2175 3.09813 16.36C3.3109 17.1983 3.74153 17.9654 4.34636 18.5836C4.95119 19.2018 5.70871 19.649 6.54213 19.88L7.00713 22.656C7.02197 22.7442 7.06017 22.8268 7.11776 22.8951C7.17535 22.9635 7.25021 23.0152 7.33455 23.0448C7.4189 23.0744 7.50963 23.0809 7.59732 23.0635C7.68501 23.0461 7.76644 23.0056 7.83313 22.946L10.5641 20.503C12.6142 20.6282 14.6717 20.4642 16.6761 20.016L17.0161 19.941C17.9011 19.7432 18.7139 19.3039 19.3643 18.6719C20.0146 18.0399 20.477 17.24 20.7001 16.361C21.4975 13.2185 21.4975 9.92658 20.7001 6.78405C20.4769 5.90496 20.0144 5.10498 19.3638 4.47298C18.7133 3.84099 17.9003 3.40174 17.0151 3.20405L16.6761 3.12805ZM7.96513 6.70205C7.77927 6.67499 7.58976 6.7124 7.42813 6.80805H7.41413C7.03913 7.02805 6.70113 7.30505 6.41313 7.63105C6.17313 7.90805 6.04313 8.18805 6.00913 8.45805C5.98913 8.61805 6.00313 8.78005 6.05013 8.93304L6.06813 8.94305C6.33813 9.73604 6.69013 10.499 7.12013 11.217C7.67458 12.2255 8.35688 13.1582 9.15013 13.992L9.17413 14.026L9.21213 14.054L9.23513 14.081L9.26313 14.105C10.0999 14.9007 11.0347 15.5862 12.0451 16.145C13.2001 16.774 13.9011 17.071 14.3221 17.195V17.201C14.4451 17.239 14.5571 17.256 14.6701 17.256C15.0287 17.2295 15.368 17.0838 15.6341 16.842C15.9591 16.554 16.2341 16.215 16.4481 15.838V15.831C16.6491 15.451 16.5811 15.093 16.2911 14.85C15.7086 14.3411 15.0788 13.889 14.4101 13.5C13.9621 13.257 13.5071 13.404 13.3231 13.65L12.9301 14.146C12.7281 14.392 12.3621 14.358 12.3621 14.358L12.3521 14.364C9.62113 13.667 8.89213 10.902 8.89213 10.902C8.89213 10.902 8.85813 10.526 9.11113 10.334L9.60313 9.93805C9.83913 9.74605 10.0031 9.29205 9.75013 8.84405C9.36373 8.17481 8.91257 7.54512 8.40313 6.96405C8.29202 6.82729 8.13619 6.73415 7.96313 6.70105L7.96513 6.70205ZM12.5791 5.50005C12.4465 5.50005 12.3193 5.55272 12.2256 5.64649C12.1318 5.74026 12.0791 5.86744 12.0791 6.00005C12.0791 6.13265 12.1318 6.25983 12.2256 6.3536C12.3193 6.44737 12.4465 6.50005 12.5791 6.50005C13.8441 6.50005 14.8941 6.91305 15.7251 7.70505C16.1521 8.13805 16.4851 8.65105 16.7031 9.21305C16.9221 9.77605 17.0221 10.377 16.9961 10.979C16.9934 11.0447 17.0036 11.1103 17.0262 11.172C17.0487 11.2337 17.0832 11.2904 17.1277 11.3387C17.2176 11.4365 17.3425 11.4945 17.4751 11.5C17.6077 11.5056 17.7371 11.4583 17.8348 11.3684C17.9325 11.2786 17.9906 11.1537 17.9961 11.021C18.0271 10.2805 17.9042 9.54163 17.6351 8.85105C17.3649 8.15718 16.9551 7.52616 16.4311 6.99705L16.4211 6.98705C15.3901 6.00205 14.0851 5.50005 12.5791 5.50005ZM12.5451 7.14405C12.4125 7.14405 12.2853 7.19672 12.1916 7.29049C12.0978 7.38426 12.0451 7.51144 12.0451 7.64405C12.0451 7.77665 12.0978 7.90383 12.1916 7.9976C12.2853 8.09137 12.4125 8.14405 12.5451 8.14405H12.5621C13.4741 8.20905 14.1381 8.51305 14.6031 9.01205C15.0801 9.52605 15.3271 10.165 15.3081 10.955C15.3051 11.0877 15.3548 11.216 15.4464 11.312C15.5381 11.4079 15.664 11.4635 15.7966 11.4665C15.9292 11.4696 16.0576 11.4198 16.1535 11.3282C16.2495 11.2366 16.3051 11.1107 16.3081 10.978C16.3321 9.94104 15.9981 9.04605 15.3361 8.33205V8.33005C14.6591 7.60405 13.7301 7.22005 12.6121 7.14505L12.5951 7.14305L12.5451 7.14405ZM12.5261 8.81905C12.4592 8.81314 12.3918 8.82078 12.3279 8.84151C12.264 8.86223 12.2049 8.89562 12.1542 8.93968C12.1035 8.98374 12.0622 9.03757 12.0328 9.09794C12.0033 9.15832 11.9864 9.22401 11.9829 9.29109C11.9794 9.35818 11.9894 9.42528 12.0124 9.48839C12.0354 9.5515 12.0709 9.60932 12.1168 9.65841C12.1626 9.7075 12.2179 9.74685 12.2793 9.7741C12.3407 9.80136 12.407 9.81596 12.4741 9.81705C12.8921 9.83905 13.1591 9.96504 13.3271 10.134C13.4961 10.304 13.6221 10.577 13.6451 11.004C13.6464 11.0711 13.6611 11.1373 13.6885 11.1986C13.7158 11.2599 13.7553 11.315 13.8044 11.3607C13.8535 11.4065 13.9113 11.4418 13.9744 11.4647C14.0375 11.4876 14.1045 11.4976 14.1716 11.494C14.2386 11.4905 14.3042 11.4735 14.3645 11.444C14.4248 11.4146 14.4785 11.3733 14.5226 11.3226C14.5666 11.2719 14.5999 11.2129 14.6206 11.1491C14.6413 11.0852 14.649 11.0179 14.6431 10.951C14.6111 10.351 14.4231 9.82104 14.0381 9.43105C13.6511 9.04105 13.1241 8.85105 12.5261 8.81905Z" fill="#009DE0"/>
</svg>
