<svg width="243" height="81" viewBox="0 0 243 81" fill="none" xmlns="http://www.w3.org/2000/svg">
<path d="M0.5 66.5556V51.2222L35.3727 1H56.4508V50.1111H65.5V66.5556H56.4508V81H37.5798V66.5556H0.5ZM38.9041 21.8889L20.3642 50.1111H38.9041V21.8889Z" fill="#009DE0"/>
<rect x="81.5" y="1" width="80" height="80" rx="40" fill="#009DE0"/>
<circle cx="121.5" cy="40.5" r="40.5" fill="#009DE0"/>
<circle cx="121.5" cy="40.5" r="26.5" fill="white"/>
<path d="M125.512 25L124.626 45.8544H118.197L117.31 25H125.512ZM121.522 57C120.192 57 119.099 56.6227 118.241 55.868C117.414 55.0844 117 54.1265 117 52.9946C117 51.8336 117.414 50.8612 118.241 50.0776C119.099 49.2939 120.192 48.902 121.522 48.902C122.823 48.902 123.887 49.2939 124.714 50.0776C125.571 50.8612 126 51.8336 126 52.9946C126 54.1265 125.571 55.0844 124.714 55.868C123.887 56.6227 122.823 57 121.522 57Z" fill="#009DE0"/>
<path d="M177.5 66.5556V51.2222L212.373 1H233.451V50.1111H242.5V66.5556H233.451V81H214.58V66.5556H177.5ZM215.904 21.8889L197.364 50.1111H215.904V21.8889Z" fill="#009DE0"/>
</svg>
