<svg width="18" height="26" viewBox="0 0 18 26" fill="none" xmlns="http://www.w3.org/2000/svg">
<path d="M2.16667 24.8358C3.44211 25.5721 5.07302 25.1351 5.8094 23.8597C6.54578 22.5843 6.10878 20.9533 4.83333 20.217C3.55789 19.4806 1.92698 19.9176 1.1906 21.193C0.454219 22.4685 0.89122 24.0994 2.16667 24.8358ZM13.1667 5.78321C14.4421 6.51959 16.073 6.08259 16.8094 4.80714C17.5458 3.5317 17.1088 1.90079 15.8333 1.16441C14.5579 0.428028 12.927 0.865028 12.1906 2.14048C11.4542 3.41592 11.8912 5.04683 13.1667 5.78321ZM3.93301 22.7764L14.933 3.72381L14.067 3.22381L3.06699 22.2764L3.93301 22.7764Z" fill="#001124"/>
</svg>
