<svg width="6" height="28" viewBox="0 0 6 28" fill="none" xmlns="http://www.w3.org/2000/svg">
<path d="M3 27.6667C4.47276 27.6667 5.66667 26.4728 5.66667 25C5.66667 23.5272 4.47276 22.3333 3 22.3333C1.52724 22.3333 0.333333 23.5272 0.333333 25C0.333333 26.4728 1.52724 27.6667 3 27.6667ZM3 5.66667C4.47276 5.66667 5.66667 4.47276 5.66667 3C5.66667 1.52724 4.47276 0.333334 3 0.333334C1.52724 0.333334 0.333332 1.52724 0.333332 3C0.333332 4.47276 1.52724 5.66667 3 5.66667ZM3.5 25L3.5 3L2.5 3L2.5 25L3.5 25Z" fill="#001124"/>
</svg>
