<svg width="6" height="79" viewBox="0 0 6 79" fill="none" xmlns="http://www.w3.org/2000/svg">
<path d="M3.19632 78.6901C4.66908 78.689 5.8621 77.4942 5.861 76.0214C5.8599 74.5487 4.66511 73.3557 3.19235 73.3568C1.71959 73.3579 0.526572 74.5527 0.52767 76.0254C0.528768 77.4982 1.72357 78.6912 3.19632 78.6901ZM3.14187 5.66667C4.61463 5.66557 5.80764 4.47078 5.80655 2.99801C5.80545 1.52526 4.61065 0.33224 3.13789 0.333339C1.66513 0.334437 0.472115 1.52924 0.473213 3.00199C0.474312 4.47475 1.66911 5.66776 3.14187 5.66667ZM3.69434 76.0231L3.63988 2.99963L2.63988 3.00038L2.69434 76.0238L3.69434 76.0231Z" fill="#001124"/>
</svg>
