<svg width="53" height="81" viewBox="0 0 53 81" fill="none" xmlns="http://www.w3.org/2000/svg">
<path d="M1.57963 79.9386C0.261014 79.2826 -0.172015 77.7404 0.612432 76.4939C1.39688 75.2475 3.10175 74.7688 4.42037 75.4247C5.73899 76.0807 6.17202 77.6229 5.38757 78.8693C4.60312 80.1158 2.89825 80.5945 1.57963 79.9386ZM48.5796 5.25724C47.261 4.60129 46.828 3.05908 47.6124 1.81262C48.3969 0.566163 50.1018 0.0874582 51.4204 0.743407C52.739 1.39936 53.172 2.94156 52.3876 4.18802C51.6031 5.43448 49.8982 5.91319 48.5796 5.25724ZM2.55233 77.4589L49.5523 2.77763L50.4477 3.22301L3.44767 77.9043L2.55233 77.4589Z" fill="#001124"/>
</svg>
