<svg width="53" height="81" viewBox="0 0 53 81" fill="none" xmlns="http://www.w3.org/2000/svg">
<path d="M51.4204 79.9386C52.739 79.2826 53.172 77.7404 52.3876 76.4939C51.6031 75.2475 49.8982 74.7688 48.5796 75.4247C47.261 76.0807 46.828 77.6229 47.6124 78.8693C48.3969 80.1158 50.1018 80.5945 51.4204 79.9386ZM4.42037 5.25724C5.73899 4.60129 6.17202 3.05908 5.38757 1.81262C4.60312 0.566163 2.89825 0.0874582 1.57963 0.743407C0.261015 1.39936 -0.172014 2.94156 0.612431 4.18802C1.39688 5.43448 3.10175 5.91319 4.42037 5.25724ZM50.4477 77.4589L3.44767 2.77763L2.55233 3.22301L49.5523 77.9043L50.4477 77.4589Z" fill="#001124"/>
</svg>
