<svg width="17" height="26" viewBox="0 0 17 26" fill="none" xmlns="http://www.w3.org/2000/svg">
<path d="M15.3333 24.8358C14.0579 25.5721 12.427 25.1351 11.6906 23.8597C10.9542 22.5843 11.3912 20.9533 12.6667 20.217C13.9421 19.4806 15.573 19.9176 16.3094 21.193C17.0458 22.4685 16.6088 24.0994 15.3333 24.8358ZM4.33333 5.78321C3.05789 6.51959 1.42698 6.08259 0.690599 4.80714C-0.0457807 3.5317 0.39122 1.90079 1.66667 1.16441C2.94211 0.428028 4.57302 0.865028 5.3094 2.14048C6.04578 3.41592 5.60878 5.04683 4.33333 5.78321ZM13.567 22.7764L2.56699 3.72381L3.43301 3.22381L14.433 22.2764L13.567 22.7764Z" fill="#001124"/>
</svg>
